<svg width="79" height="70" viewBox="0 0 79 85" fill="none" xmlns="http://www.w3.org/2000/svg">
<g clip-path="url(#clip0_53_246)">
<path d="M43.442 61.3716C45.3799 61.3716 46.9508 59.8227 46.9508 57.912C46.9508 56.0013 45.3799 54.4524 43.442 54.4524C41.5041 54.4524 39.9332 56.0013 39.9332 57.912C39.9332 59.8227 41.5041 61.3716 43.442 61.3716Z" fill="#F9D500"/>
<path d="M76.0087 66.4026C77.6595 66.4026 78.9977 65.0831 78.9977 63.4555C78.9977 61.8279 77.6595 60.5084 76.0087 60.5084C74.3579 60.5084 73.0197 61.8279 73.0197 63.4555C73.0197 65.0831 74.3579 66.4026 76.0087 66.4026Z" fill="#F9D500"/>
<path d="M65.3431 74.0929C66.9939 74.0929 68.3321 72.7734 68.3321 71.1458C68.3321 69.5182 66.9939 68.1987 65.3431 68.1987C63.6924 68.1987 62.3541 69.5182 62.3541 71.1458C62.3541 72.7734 63.6924 74.0929 65.3431 74.0929Z" fill="#F9D500"/>
<path d="M70.0307 70.4377C71.6815 70.4377 73.0197 69.1182 73.0197 67.4906C73.0197 65.863 71.6815 64.5435 70.0307 64.5435C68.3799 64.5435 67.0417 65.863 67.0417 67.4906C67.0417 69.1182 68.3799 70.4377 70.0307 70.4377Z" fill="#F9D500"/>
<path d="M72.7142 23.226C76.1858 23.226 79 20.4512 79 17.0283C79 13.6055 76.1858 10.8307 72.7142 10.8307C69.2427 10.8307 66.4284 13.6055 66.4284 17.0283C66.4284 20.4512 69.2427 23.226 72.7142 23.226Z" fill="#F9D500"/>
<path d="M14.5893 12.3953C18.0609 12.3953 20.8751 9.6205 20.8751 6.19764C20.8751 2.77478 18.0609 0 14.5893 0C11.1178 0 8.30353 2.77478 8.30353 6.19764C8.30353 9.6205 11.1178 12.3953 14.5893 12.3953Z" fill="#F9D500"/>
<path d="M64.3947 22.5718C59.0801 22.2144 53.7656 25.2221 51.2964 30.0935C49.151 34.3264 49.2103 36.6665 51.5335 40.6229C51.4036 39.0741 51.3215 39.3371 51.3602 37.8377C51.5472 30.7386 58.0587 25.701 64.8051 27.3734C69.8323 28.6188 72.2696 31.6041 72.1716 36.6351C72.1419 38.0693 71.9413 39.5147 71.7087 40.9511L71.6859 41.0208C71.6312 41.1894 71.6107 41.3625 71.6084 41.5379C71.6084 41.5581 71.6061 41.5783 71.6039 41.5986C71.5925 41.6795 71.5811 41.7604 71.5742 41.8413C71.5355 42.3808 71.5263 43.1924 71.6335 44.3456C72.069 47.4972 72.9832 48.5583 74.8938 51.9572C74.7707 51.2041 74.5632 50.4758 74.3489 49.7474C74.3375 49.7047 74.3261 49.6598 74.3147 49.617C73.5623 46.6857 74.2828 45.2245 75.0785 42.237C75.254 41.5806 75.4205 40.9219 75.5824 40.2655C76.2983 37.3544 76.6676 34.4186 75.9084 31.5074C74.6567 26.717 69.7867 22.9337 64.3947 22.5718Z" fill="#18929C"/>
<path d="M74.26 54.3872C74.0023 53.3127 73.6535 52.2719 73.2158 51.2626C72.7757 50.2532 72.2787 49.3069 71.727 48.4256C71.1729 47.5444 70.6144 46.7644 70.0489 46.09C69.8985 45.9124 69.7001 45.7146 69.4539 45.501C69.2054 45.2875 68.9819 45.2605 68.7813 45.4246C68.6604 45.5235 68.6285 45.7079 68.6855 45.9776C68.7425 46.2474 68.8406 46.5351 68.9774 46.8408C69.1142 47.1466 69.2578 47.4388 69.406 47.7175C69.5542 47.9963 69.6431 48.1919 69.6682 48.3043C70.0945 49.4575 70.0968 50.6219 69.6773 51.7976C69.2578 52.9733 68.5852 53.9377 67.6618 54.6885C66.9984 55.228 66.3395 55.5742 65.6874 55.7225C65.0331 55.8709 64.3901 55.8799 63.754 55.7473C63.1179 55.6146 62.4978 55.3696 61.8936 55.0099C61.6884 54.8885 61.4878 54.7559 61.2894 54.621C61.2278 54.5401 61.1663 54.4547 61.107 54.376C60.8106 53.9826 60.5803 53.6881 60.4139 53.4903C60.3683 53.6072 60.3273 53.7263 60.2862 53.8432C60.2475 53.8095 60.2064 53.7758 60.1654 53.7398L60.0879 54.5446C59.9784 55.0212 59.9169 55.4977 59.9077 55.9743C59.9032 56.2081 59.8941 56.4441 59.8804 56.6802L59.7025 58.5168C59.5224 59.7958 59.0756 61.0187 58.3619 62.1832C57.6483 63.3499 56.7774 64.348 55.7514 65.1842C54.3834 66.297 53.0656 66.7713 51.7934 66.6072C50.6831 66.4633 49.5751 65.989 48.4647 65.1842C48.3849 65.0763 48.3028 64.9662 48.2253 64.8628C47.9289 64.4694 47.6987 64.1749 47.5322 63.9771C47.2108 64.8043 47.0443 65.6338 47.0284 66.4633C47.0124 67.2928 46.944 68.1403 46.8254 69.0058C46.6453 70.2848 46.1985 71.5077 45.4848 72.6722C44.7712 73.8389 43.9003 74.837 42.8743 75.6732C41.5063 76.786 40.1885 77.2603 38.9163 77.0962C37.6441 76.9321 36.071 76.7028 34.801 75.671L34.7987 75.6822C25.4191 68.5472 17.6217 60.1645 12.2843 49.9633C9.63502 44.9008 7.43488 39.6631 7.93647 33.8768C8.55205 26.7553 12.6559 21.6187 19.9404 18.8447C27.0378 16.1426 33.4034 17.5678 38.8616 22.1807C42.929 25.6178 45.8952 29.7878 48.166 34.3601C49.6092 37.2645 50.8131 40.27 52.124 43.2284C52.1537 43.1047 52.238 42.9519 52.2175 42.8102C52.0533 41.6368 51.9165 40.4566 51.6863 39.2944C50.218 31.8829 47.4 25.0109 41.9532 19.2538C37.0148 14.034 30.6721 11.586 22.9978 12.3054C9.69658 13.5372 -0.5244 24.3859 0.0205061 36.4687C0.328298 43.3003 2.89551 49.3113 6.82157 54.7716L6.81473 54.7649C6.81473 54.7649 6.82157 54.7739 6.83525 54.7919C7.64463 55.9181 8.51101 57.0196 9.42983 58.1009C10.3874 59.2271 11.3655 60.3264 12.3664 61.4009C18.9896 68.9923 30.2115 80.8008 38.531 84.1076C39.0896 84.3706 39.6641 84.5796 40.2524 84.7325C41.0845 84.9483 41.9213 85.0337 42.7671 84.9933H42.7694C43.043 84.9798 43.3189 84.9528 43.5948 84.9101C44.7211 84.7415 45.7881 84.2492 46.7935 83.4309C47.8788 82.5475 48.7269 81.4999 49.3334 80.286C49.9421 79.0744 50.3753 77.7863 50.6375 76.424C50.8267 75.4304 50.9499 74.4301 51.0046 73.4253C51.6908 73.7827 52.3976 74.0592 53.1272 74.248C54.2284 74.5335 55.3433 74.5942 56.4719 74.4256C57.5982 74.257 58.6652 73.7647 59.6706 72.9464C60.7559 72.063 61.604 71.0154 62.2105 69.8015C62.8192 68.5899 63.2524 67.3018 63.5146 65.9395C63.6947 64.9931 63.8133 64.0423 63.8726 63.0846C64.4585 63.3948 65.0627 63.6489 65.6897 63.8444C66.7863 64.1861 67.8921 64.294 69.0047 64.1704C70.1196 64.0467 71.1684 63.5837 72.1533 62.7811C72.9969 62.0933 73.6056 61.2975 73.9818 60.3916C74.3557 59.4856 74.5609 58.528 74.5929 57.5187C74.6293 56.5026 74.5176 55.4618 74.26 54.3872Z" fill="#18929C"/>
</g>
<defs>
<clipPath id="clip0_53_246">
<rect width="79" height="85" fill="white"/>
</clipPath>
</defs>
</svg>
