<svg width="110" height="110" viewBox="0 0 155 173" fill="none" xmlns="http://www.w3.org/2000/svg">
<path d="M85.01 124.569C88.8021 124.569 91.8763 121.425 91.8763 117.547C91.8763 113.668 88.8021 110.524 85.01 110.524C81.2178 110.524 78.1437 113.668 78.1437 117.547C78.1437 121.425 81.2178 124.569 85.01 124.569Z" fill="#F9D500"/>
<path d="M148.738 134.78C151.969 134.78 154.588 132.102 154.588 128.798C154.588 125.495 151.969 122.816 148.738 122.816C145.508 122.816 142.889 125.495 142.889 128.798C142.889 132.102 145.508 134.78 148.738 134.78Z" fill="#F9D500"/>
<path d="M127.867 150.389C131.098 150.389 133.716 147.711 133.716 144.408C133.716 141.104 131.098 138.426 127.867 138.426C124.637 138.426 122.018 141.104 122.018 144.408C122.018 147.711 124.637 150.389 127.867 150.389Z" fill="#F9D500"/>
<path d="M137.04 142.97C140.271 142.97 142.889 140.292 142.889 136.989C142.889 133.685 140.271 131.007 137.04 131.007C133.81 131.007 131.191 133.685 131.191 136.989C131.191 140.292 133.81 142.97 137.04 142.97Z" fill="#F9D500"/>
<path d="M142.292 47.1426C149.085 47.1426 154.592 41.5105 154.592 34.563C154.592 27.6155 149.085 21.9834 142.292 21.9834C135.498 21.9834 129.991 27.6155 129.991 34.563C129.991 41.5105 135.498 47.1426 142.292 47.1426Z" fill="#F9D500"/>
<path d="M28.5493 25.1592C35.3427 25.1592 40.8498 19.5271 40.8498 12.5796C40.8498 5.63207 35.3427 0 28.5493 0C21.756 0 16.2489 5.63207 16.2489 12.5796C16.2489 19.5271 21.756 25.1592 28.5493 25.1592Z" fill="#F9D500"/>
<path d="M126.011 45.8146C115.612 45.0891 105.212 51.1941 100.38 61.0817C96.1816 69.6734 96.2976 74.4232 100.844 82.4537C100.59 79.31 100.429 79.8438 100.505 76.8004C100.871 62.3912 113.613 52.166 126.814 55.5607C136.652 58.0885 141.422 64.1479 141.23 74.3594C141.172 77.2704 140.779 80.2043 140.324 83.1199L140.279 83.2613C140.172 83.6035 140.132 83.9549 140.128 84.3108C140.128 84.3518 140.123 84.3929 140.119 84.434C140.096 84.5982 140.074 84.7625 140.061 84.9268C139.985 86.0218 139.967 87.669 140.177 90.0097C141.029 96.4067 142.818 98.5603 146.557 105.459C146.316 103.931 145.91 102.452 145.49 100.974C145.468 100.887 145.446 100.796 145.424 100.709C143.951 94.7595 145.361 91.7937 146.918 85.7298C147.262 84.3975 147.587 83.0606 147.904 81.7282C149.305 75.8194 150.028 69.8605 148.542 63.9517C146.093 54.2284 136.563 46.5492 126.011 45.8146Z" fill="#18929C"/>
<path d="M145.316 110.392C144.812 108.211 144.13 106.098 143.273 104.049C142.412 102.001 141.439 100.08 140.36 98.2912C139.276 96.5026 138.182 94.9193 137.076 93.5505C136.782 93.19 136.393 92.7885 135.912 92.355C135.425 91.9216 134.988 91.8668 134.595 92.1999C134.359 92.4007 134.296 92.7748 134.408 93.3223C134.52 93.8699 134.711 94.4539 134.979 95.0745C135.247 95.695 135.528 96.2882 135.818 96.8539C136.108 97.4197 136.282 97.8167 136.331 98.0448C137.165 100.386 137.17 102.749 136.349 105.135C135.528 107.522 134.212 109.479 132.405 111.003C131.106 112.098 129.817 112.801 128.541 113.102C127.261 113.403 126.002 113.421 124.758 113.152C123.513 112.883 122.299 112.386 121.117 111.656C120.716 111.409 120.323 111.14 119.935 110.866C119.814 110.702 119.694 110.529 119.578 110.369C118.998 109.57 118.547 108.973 118.222 108.571C118.132 108.808 118.052 109.05 117.972 109.288C117.896 109.219 117.816 109.151 117.735 109.078L117.584 110.711C117.369 111.678 117.249 112.646 117.231 113.613C117.222 114.088 117.204 114.567 117.178 115.046L116.83 118.774C116.477 121.37 115.603 123.852 114.206 126.215C112.81 128.584 111.105 130.609 109.098 132.307C106.421 134.565 103.842 135.528 101.353 135.195C99.1798 134.903 97.0115 133.94 94.8387 132.307C94.6825 132.088 94.5219 131.864 94.3702 131.654C93.7902 130.856 93.3396 130.258 93.0139 129.857C92.3849 131.536 92.0592 133.219 92.0279 134.903C91.9967 136.587 91.8629 138.307 91.6309 140.063C91.2784 142.66 90.4039 145.142 89.0075 147.505C87.611 149.873 85.9067 151.899 83.899 153.597C81.2221 155.855 78.6433 156.818 76.1538 156.485C73.6643 156.152 70.5858 155.686 68.1008 153.592L68.0963 153.615C49.7416 139.133 34.4831 122.118 24.0387 101.412C18.8544 91.1368 14.549 80.5055 15.5305 68.7609C16.7352 54.306 24.7659 43.8801 39.0205 38.2496C52.9092 32.7651 65.3658 35.6579 76.0467 45.0207C84.0061 51.9972 89.8106 60.4612 94.2542 69.7419C97.0784 75.637 99.4341 81.7374 101.999 87.7421C102.057 87.4911 102.223 87.1808 102.182 86.8934C101.861 84.5116 101.593 82.1162 101.143 79.7572C98.2696 64.7137 92.7552 50.7653 82.0966 39.08C72.4329 28.4852 60.0209 23.5164 45.0034 24.9765C18.9748 27.4769 -1.02619 49.4968 0.0401144 74.0218C0.642421 87.8881 5.6661 100.089 13.3489 111.172L13.3355 111.158C13.3355 111.158 13.3489 111.177 13.3756 111.213C14.9595 113.499 16.6549 115.735 18.4528 117.929C20.3267 120.215 22.2407 122.447 24.1993 124.628C37.16 140.036 59.1197 164.004 75.3998 170.716C76.4929 171.25 77.6172 171.674 78.7683 171.985C80.3967 172.423 82.0341 172.596 83.6893 172.514H83.6938C84.2292 172.487 84.769 172.432 85.3089 172.345C87.5129 172.003 89.6009 171.004 91.5684 169.343C93.6921 167.55 95.3518 165.423 96.5385 162.96C97.7298 160.5 98.5775 157.886 99.0905 155.121C99.4608 153.104 99.7018 151.073 99.8088 149.034C101.152 149.759 102.535 150.321 103.963 150.704C106.117 151.283 108.299 151.407 110.508 151.064C112.712 150.722 114.8 149.723 116.767 148.062C118.891 146.269 120.55 144.143 121.737 141.679C122.928 139.219 123.776 136.605 124.289 133.84C124.642 131.919 124.874 129.989 124.99 128.045C126.136 128.675 127.319 129.19 128.546 129.587C130.692 130.281 132.855 130.5 135.033 130.249C137.214 129.998 139.267 129.058 141.194 127.429C142.845 126.033 144.036 124.418 144.772 122.579C145.504 120.74 145.905 118.796 145.968 116.748C146.039 114.685 145.821 112.573 145.316 110.392Z" fill="#18929C"/>
</svg>
