<svg width="104" height="99" viewBox="0 0 104 99" fill="none" xmlns="http://www.w3.org/2000/svg">
<g clip-path="url(#clip0_68_1313)">
<path d="M104 16.0194C103.593 16.4639 103.2 16.9246 102.774 17.3501C97.5851 22.5426 92.4044 27.7433 87.1883 32.9115C85.6314 34.4535 84.9723 36.2287 85.2246 38.4076C85.4036 39.9496 85.4415 41.5106 85.5419 43.0608C85.6667 44.9769 85.2001 46.7357 84.2101 48.3835C84.0582 48.6355 84.0718 49.1694 84.2426 49.3997C86.0301 51.8199 86.5129 54.4676 85.8023 57.3729C85.5853 58.2564 85.4849 59.1697 85.2761 60.0559C84.9723 61.354 85.0835 62.5979 85.5744 63.831C86.0003 64.8988 85.7345 65.7227 84.9099 66.0723C84.0338 66.4436 83.2146 66.0262 82.7562 64.9584C81.9561 63.0885 81.8964 61.1616 82.325 59.1941C82.5555 58.1371 82.7454 57.0748 82.9597 56.0151C83.2933 54.3647 82.9841 52.8253 81.9615 51.5055C78.9127 47.5813 75.8314 43.6787 72.7284 39.7924C71.7085 38.5133 69.9047 38.3642 68.6353 39.3507C67.3876 40.3209 67.1652 42.0852 68.1417 43.4321C68.7357 44.2533 69.3975 45.0284 69.9726 45.8631C70.4825 46.6029 70.3306 47.4376 69.6715 47.939C69.0096 48.4458 68.1634 48.3943 67.5856 47.6924C61.8732 40.7545 55.0379 34.9061 48.859 28.4209C48.5796 28.1282 48.2894 27.8355 47.9666 27.597C47.1041 26.9574 45.8699 26.9655 45.0263 27.5807C44.1584 28.2176 43.7406 29.3694 44.1285 30.3721C44.3021 30.822 44.6547 31.2339 45.0046 31.5835C50.9774 37.5702 56.9637 43.5459 62.9446 49.5244C63.3515 49.9309 63.7638 50.332 64.1625 50.744C65.0169 51.622 65.1037 52.557 64.3985 53.2237C63.7231 53.8606 62.8307 53.7684 61.9926 52.931C55.1545 46.0853 48.3219 39.2369 41.4866 32.3884C41.0797 31.9819 40.681 31.5673 40.266 31.1689C39.0698 30.0144 37.6214 29.9358 36.5636 30.9629C35.4786 32.0199 35.5274 33.5158 36.7453 34.7354C42.794 40.7898 48.8536 46.836 54.9104 52.8822C56.1066 54.0774 57.3082 55.2671 58.499 56.4704C59.3127 57.2943 59.3968 58.2293 58.7404 58.8743C58.0867 59.5166 57.159 59.4271 56.3345 58.606C51.4005 53.6844 46.4721 48.7575 41.5409 43.8332C41.3022 43.5947 41.0743 43.34 40.8085 43.1313C39.8456 42.3806 38.5463 42.4267 37.635 43.2207C36.6883 44.05 36.4822 45.3698 37.1766 46.4295C37.4153 46.7926 37.7353 47.1043 38.0445 47.4132C42.8265 52.1993 47.614 56.9799 52.3987 61.7632C52.613 61.9773 52.8408 62.1833 53.0361 62.4164C53.6302 63.1129 53.6112 64.0397 53.0036 64.6034C52.4286 65.1373 51.5524 65.1156 50.8906 64.5411C50.6872 64.3649 50.5027 64.1644 50.3101 63.9747C48.1809 61.8472 46.0598 59.709 43.9169 57.5951C42.8727 56.5653 41.5734 56.5165 40.681 57.4217C39.7669 58.3485 39.8266 59.5789 40.8926 60.6494C45.8862 65.6549 50.8933 70.6469 55.895 75.6444C57.1645 76.9127 58.697 77.4845 60.4899 77.3653C62.177 77.2515 63.8669 77.1675 65.554 77.0374C68.3966 76.8151 70.8107 77.7149 72.8125 79.7312C74.3369 81.2678 75.8558 82.8072 77.2961 84.2625C81.2888 80.2732 85.2218 76.3409 89.3908 72.1754C89.144 72.002 88.6856 71.7581 88.3276 71.4112C87.3972 70.5169 87.2914 69.6442 87.9668 68.9504C88.6341 68.2621 89.5563 68.3596 90.446 69.2431C92.6539 71.4356 94.8537 73.6389 97.0535 75.8395C99.3672 78.1512 101.678 80.4657 103.989 82.7801C103.989 83.1866 103.989 83.5931 103.989 83.9969C99.2153 88.7802 94.4468 93.569 89.6648 98.3442C88.7317 99.2738 88.0102 99.206 86.9741 98.1707C81.6577 92.8644 76.3251 87.577 71.0467 82.2326C69.4301 80.5984 67.6154 79.8125 65.3099 80.0917C63.9347 80.257 62.5405 80.2461 61.1599 80.3735C58.0433 80.6635 55.4421 79.6608 53.3209 77.3761C53.0904 77.1295 52.8436 76.8992 52.5967 76.6661C52.5506 76.6227 52.4801 76.6065 52.3418 76.536C51.528 77.2867 50.6845 78.0564 49.849 78.8342C47.6004 80.9318 44.9504 81.5849 41.964 81.0293C40.9007 80.8315 39.8402 80.6174 38.7823 80.3979C36.5174 79.9236 34.6025 80.5009 32.9533 82.1595C27.7807 87.3683 22.5755 92.5446 17.3812 97.7344C17.1887 97.9268 17.0015 98.122 16.8062 98.3062C15.8487 99.2114 15.1299 99.2141 14.186 98.2737C10.9257 95.027 7.67346 91.7722 4.41854 88.5201C3.19795 87.3005 1.97193 86.0864 0.759473 84.8587C-0.263113 83.8235 -0.257688 83.1486 0.78931 82.0998C6.07584 76.8124 11.3434 71.506 16.6679 66.2566C18.336 64.6115 19.0738 62.7551 18.7809 60.4163C18.5801 58.8092 18.5476 57.1804 18.4744 55.5598C18.3821 53.5598 18.968 51.7494 20.1696 50.1586C20.5277 49.687 20.6172 49.3862 20.2076 48.8632C18.9572 47.2642 18.374 45.4132 18.4744 43.3779C18.5584 41.6895 18.6208 39.9984 18.7998 38.3181C19.0277 36.1772 18.3713 34.4292 16.8442 32.9169C11.5604 27.6756 6.30639 22.4017 1.04157 17.1414C-0.352623 15.7484 -0.358048 15.2443 1.0063 13.8784C5.32449 9.58023 9.63183 5.27659 13.9392 0.972946C15.233 -0.319772 15.8107 -0.314352 17.1371 1.01089C22.3314 6.20073 27.5501 11.3635 32.701 16.594C34.5374 18.4585 36.5852 19.136 39.1349 18.529C40.5779 18.1875 42.0562 17.9273 43.5318 17.8108C45.7885 17.6319 47.793 18.3881 49.5181 19.8515C50.34 20.548 51.1429 21.2635 52.0108 22.0169C52.8191 21.315 53.5813 20.6537 54.3381 19.9924C56.5542 18.0574 59.1228 17.4314 61.9899 17.9544C63.0206 18.1414 64.054 18.3284 65.0739 18.5642C67.4581 19.1117 69.4382 18.4938 71.166 16.7457C75.9724 11.8865 80.825 7.07609 85.6585 2.24398C86.2336 1.66944 86.7869 1.07593 87.3864 0.528489C88.1431 -0.165297 88.9026 -0.186978 89.635 0.54204C94.2895 5.16818 98.925 9.81601 103.563 14.4584C103.726 14.621 103.851 14.8216 103.995 15.0059C104 15.3419 104 15.6807 104 16.0194ZM33.9759 36.3072C32.3783 33.6242 32.3511 31.2746 33.9515 29.3558C35.9316 26.9791 38.4053 26.6701 41.1367 27.9086C42.8862 24.456 44.9938 23.5047 48.604 24.4533C48.9051 24.5319 49.2767 24.3449 49.8816 24.2337C48.9973 23.4505 48.3626 22.9004 47.7415 22.334C46.2198 20.9437 44.4377 20.586 42.4604 20.9627C41.4649 21.1524 40.4667 21.3312 39.4767 21.5507C36.0455 22.315 33.1405 21.3963 30.7047 18.884C29.2942 17.4314 27.8458 16.014 26.5411 14.7077C22.5728 18.6591 18.6588 22.5589 14.6932 26.5102C16.1769 27.9872 17.7474 29.5212 19.2881 31.0822C21.2871 33.1066 22.1009 35.5511 21.8513 38.3805C21.6994 40.096 21.6045 41.8196 21.5231 43.5405C21.458 44.9416 21.8812 46.191 22.9255 47.3699C23.826 46.4268 24.6777 45.5135 25.5538 44.6218C26.6035 43.5541 27.4335 43.4077 28.1713 44.1205C28.9172 44.8441 28.7816 45.6923 27.7427 46.733C26.2617 48.2181 24.778 49.7006 23.2943 51.1803C22.0249 52.4432 21.4038 53.9527 21.5231 55.7522C21.6153 57.1696 21.6208 58.5951 21.8052 60.0017C22.2636 63.5112 21.1108 66.3541 18.5205 68.7146C17.1534 69.9613 15.8867 71.3163 14.6173 72.582C18.5937 76.5604 22.4833 80.4548 26.4353 84.4088C27.8594 82.9806 29.3268 81.5334 30.7644 80.0618C33.1866 77.5848 36.0699 76.6959 39.4604 77.4547C40.1846 77.6173 40.936 77.6851 41.6439 77.8992C45.4983 79.0591 47.8961 76.8639 50.2586 74.1674C49.963 73.918 49.6592 73.7012 49.3988 73.4411C45.8292 69.8854 42.2569 66.3325 38.7037 62.7551C36.6476 60.6846 36.4144 57.7821 38.172 55.7062C38.7389 55.0341 39.512 54.5354 40.2687 53.8904C38.6331 52.2697 36.9569 50.6545 35.3348 48.9851C33.4931 47.0907 33.1296 44.2966 34.597 42.199C35.2833 41.218 36.333 40.4916 37.2145 39.6542C36.9379 39.3561 36.5364 38.9198 35.9967 38.3344C35.107 39.2748 34.2715 40.199 33.3927 41.0797C32.6007 41.8711 31.7219 41.9117 31.0682 41.2532C30.4389 40.619 30.4958 39.6949 31.2635 38.9225C32.1477 38.039 33.0618 37.188 33.9759 36.3072ZM89.3257 26.5048C85.352 22.5345 81.4488 18.632 77.4751 14.659C76.0158 16.1387 74.4942 17.7241 72.9264 19.2607C70.713 21.4261 68.044 22.1822 65.0088 21.6537C63.8777 21.4559 62.7575 21.2039 61.6318 20.9762C60.1264 20.6727 58.5749 20.6483 57.3381 21.5914C55.2847 23.1578 53.3725 24.9086 51.5579 26.4479C56.0442 30.9304 60.4329 35.3126 64.7972 39.6732C64.7999 39.6705 64.8569 39.5485 64.9112 39.4266C66.9862 34.917 72.4354 34.3451 75.4462 38.291C77.4155 40.8683 79.4579 43.3915 81.4705 45.9335C81.5628 46.0501 81.6903 46.1341 82.0293 46.4349C82.211 45.3373 82.4796 44.4592 82.4769 43.5812C82.4741 41.9632 82.3819 40.3372 82.2002 38.7274C81.8421 35.5403 82.8132 32.8871 85.1296 30.6784C86.5916 29.28 87.9994 27.8273 89.3257 26.5048ZM91.5608 74.872C87.6793 78.7529 83.7436 82.6852 79.9136 86.5146C82.7454 89.3439 85.6341 92.2302 88.3357 94.9295C92.1955 91.0757 96.1285 87.1488 100.002 83.2814C97.2433 80.5307 94.3736 77.6715 91.5608 74.872ZM15.5666 3.86191C11.6553 7.77259 7.76297 11.667 3.92488 15.5045C6.71326 18.3013 9.56673 21.1659 12.2656 23.8733C16.139 20.0006 20.0476 16.098 23.9318 12.2172C21.2139 9.50435 18.393 6.68584 15.5666 3.86191ZM100.1 15.5967C96.1801 11.6806 92.2877 7.79156 88.5636 4.07059C85.7833 6.84845 82.9244 9.70489 80.193 12.434C83.9741 16.2281 87.861 20.1252 91.7154 23.9925C94.5092 21.193 97.3518 18.3474 100.1 15.5967ZM15.4771 95.0135C18.2736 92.2139 21.1298 89.3548 23.8911 86.5905C20.0828 82.7855 16.1905 78.8965 12.3877 75.0942C9.59657 77.8856 6.73767 80.7421 3.96828 83.5091C7.79552 87.3358 11.6906 91.2275 15.4771 95.0135Z" fill="currentColor"/>
</g>
<defs>
<clipPath id="clip0_68_1313">
<rect width="104" height="99" fill="currentColor"/>
</clipPath>
</defs>
</svg>
