<svg width="113" height="99" viewBox="0 0 113 99" fill="none" xmlns="http://www.w3.org/2000/svg">
<g clip-path="url(#clip0_68_1305)">
<path d="M14.5898 43.5113C15.3505 43.2158 15.9925 42.8807 16.6771 42.7193C19.0443 42.1527 21.1194 42.765 22.8355 44.4769C27.3022 48.9243 31.7841 53.3595 36.193 57.8678C40.0055 61.7638 41.8859 66.4945 41.9163 71.9532C41.9315 74.8349 41.9194 77.7196 41.9194 80.7597C42.537 80.7597 43.0908 80.7383 43.6415 80.7627C44.8038 80.8175 45.5402 81.4633 45.5463 82.5965C45.5736 87.4612 45.5767 92.3259 45.5432 97.1876C45.5341 98.339 44.7521 98.9787 43.4955 98.9909C41.5968 99.0122 39.7012 98.997 37.8026 98.997C30.2871 98.997 22.7716 98.997 15.2561 98.997C13.3331 98.997 12.7702 98.4213 12.7702 96.4717C12.7672 92.1005 12.7672 87.7323 12.7702 83.3611C12.7702 81.2805 13.2845 80.7749 15.4052 80.7566C15.7004 80.7536 15.9955 80.7566 16.4093 80.7566C16.4093 79.1939 16.4489 77.7226 16.3819 76.2544C16.3667 75.8949 16.0533 75.5142 15.8008 75.2035C10.8381 69.1081 5.87242 63.0128 0.879342 56.9418C0.25863 56.1894 0 55.4248 0 54.4561C0.0212989 42.7894 0.0152135 31.1226 0.0152135 19.4558C0.0152135 17.4514 0.562901 16.894 2.59543 16.9184C4.07114 16.9336 5.57424 16.8544 7.01952 17.095C11.474 17.8383 14.5472 21.5059 14.5806 26.0325C14.6202 31.4272 14.5898 36.825 14.5928 42.2197C14.5898 42.6249 14.5898 43.03 14.5898 43.5113ZM38.2742 80.7018C38.2742 77.6099 38.3168 74.6125 38.2651 71.6181C38.192 67.3779 36.6859 63.6921 33.774 60.6063C32.5478 59.3086 31.2638 58.0689 30.0041 56.8078C26.7849 53.5849 23.5688 50.356 20.3405 47.1423C19.1447 45.9513 17.7907 45.7319 16.6801 46.6702C15.5908 47.5931 14.6263 48.6623 13.4488 49.8229C16.7105 53.0701 19.8932 56.2412 22.9907 59.3269C22.1783 60.2164 21.4115 61.048 20.3648 62.1903C20.1001 61.7608 19.9389 61.3435 19.6498 61.051C16.5523 57.9196 13.4335 54.8095 10.3239 51.6933C8.70822 50.0727 8.72344 49.4513 10.263 47.8064C10.6099 47.4347 10.9172 46.8529 10.9203 46.3625C10.9629 39.6396 10.9659 32.9137 10.9416 26.1909C10.9264 22.304 7.49114 19.733 3.69993 20.7291C3.68776 20.8388 3.66342 20.9484 3.66342 21.0611C3.66037 32.0029 3.65125 42.9417 3.68472 53.8834C3.68472 54.3495 3.96465 54.8917 4.27196 55.2725C9.24678 61.4044 14.2672 67.4997 19.2177 73.6499C19.6954 74.2409 19.9632 75.1304 20.021 75.9041C20.1427 77.4789 20.0575 79.069 20.0575 80.6987C26.1612 80.7018 32.1431 80.7018 38.2742 80.7018ZM41.8433 95.2928C41.8433 91.6253 41.8433 88.043 41.8433 84.4881C33.3298 84.4881 24.8954 84.4881 16.4732 84.4881C16.4732 88.1313 16.4732 91.6862 16.4732 95.2928C24.9411 95.2928 33.3481 95.2928 41.8433 95.2928Z" fill="currentColor"/>
<path d="M98.4072 43.5326C98.4072 37.6169 98.3829 31.8049 98.4163 25.9928C98.4376 22.0145 100.914 18.4018 104.696 17.4423C106.854 16.894 109.197 16.9823 111.457 16.9823C112.483 16.9823 112.979 17.8687 112.982 18.9197C112.985 20.7047 112.985 22.4928 112.985 24.2778C112.985 34.3088 112.973 44.3428 113.003 54.3738C113.006 55.4339 112.696 56.2533 112.032 57.0605C107.109 63.0401 102.201 69.035 97.3362 75.0664C96.9102 75.5964 96.6881 76.3914 96.6181 77.089C96.5025 78.2496 96.5877 79.4315 96.5877 80.7566C97.2084 80.7566 97.7621 80.7352 98.3159 80.7596C99.4752 80.8144 100.208 81.4633 100.218 82.5964C100.245 87.4612 100.248 92.3259 100.215 97.1875C100.205 98.339 99.4235 98.9726 98.1607 98.9848C96.11 99.0061 94.0622 98.9908 92.0114 98.9908C84.6846 98.9908 77.3608 98.9908 70.034 98.9908C67.9619 98.9908 67.4385 98.4547 67.4385 96.3437C67.4385 92.0487 67.4385 87.7566 67.4385 83.4616C67.4385 81.2592 67.9162 80.7688 70.0796 80.7505C70.3748 80.7474 70.6699 80.7505 71.0807 80.7505C71.0807 78.2709 71.1233 75.8888 71.0685 73.5067C70.9985 70.3997 71.321 67.3657 72.4894 64.4597C73.5544 61.8156 75.1244 59.5127 77.1387 57.5022C81.2524 53.3991 85.354 49.2837 89.4616 45.1714C92.407 42.2227 94.4608 41.8237 98.4072 43.5326ZM89.7385 59.2903C92.9881 56.0584 96.1769 52.8873 99.4661 49.6157C98.5441 48.7354 97.6678 47.8977 96.7915 47.0631C95.4466 45.7867 94.0257 45.7837 92.693 47.1148C88.205 51.5927 83.717 56.0736 79.2594 60.5819C77.1569 62.7081 75.5473 65.2456 75.2127 68.2003C74.7471 72.3218 74.7319 76.492 74.522 80.6804C80.8508 80.6804 86.8571 80.6804 92.9395 80.6804C92.9395 79.0568 92.8451 77.4972 92.979 75.9558C93.049 75.1486 93.332 74.2287 93.831 73.6073C98.7541 67.4845 103.753 61.4196 108.695 55.309C109.06 54.8582 109.312 54.1728 109.315 53.594C109.352 42.9569 109.343 32.3197 109.343 21.6825C109.343 21.32 109.343 20.9606 109.343 20.6225C104.493 19.9919 101.852 22.9985 102.001 27.2874C102.214 33.5107 102.068 39.7462 102.04 45.9756C102.037 46.792 102.229 47.389 102.837 47.9678C104.267 49.3233 104.246 50.1305 102.877 51.5044C99.6334 54.7576 96.3868 58.0079 93.1372 61.2551C92.909 61.4836 92.6504 61.6816 92.5287 61.7882C91.5976 60.9566 90.7548 60.2042 89.7385 59.2903ZM71.1567 84.4516C71.1567 88.1222 71.1567 91.7044 71.1567 95.2563C79.6733 95.2563 88.1076 95.2563 96.5238 95.2563C96.5238 91.6131 96.5238 88.0552 96.5238 84.4516C88.0559 84.4516 79.6489 84.4516 71.1567 84.4516Z" fill="currentColor"/>
<path d="M86.781 25.344C85.4635 24.1986 84.1673 23.0259 82.7951 21.9506C81.937 21.2804 81.5597 20.5676 81.5871 19.4284C81.6754 15.8948 81.6297 12.3552 81.6145 8.81862C81.6084 7.09449 80.8508 6.32991 79.1499 6.31468C76.9683 6.2964 74.7867 6.3756 72.6081 6.29335C70.0492 6.19588 68.8686 6.6528 69.0238 9.69591C69.0268 9.74465 68.9203 9.79948 68.8017 9.90914C65.3056 6.91172 61.8035 3.90212 58.2952 0.901661C56.8925 -0.298524 56.1166 -0.304616 54.7383 0.877291C45.2329 9.0288 35.7305 17.1834 26.2312 25.341C24.7494 26.6142 24.6977 27.717 26.0578 29.0969C27.6795 30.7448 29.3043 32.3928 30.9687 33.9981C31.5863 34.5921 32.2588 35.3567 33.0134 35.5121C33.7771 35.6705 34.6747 35.1709 35.5266 34.9577V39.801H35.5753V46.2284H77.5403V41.9394H77.5251V34.7262C79.4603 36.036 80.0719 35.9812 81.6601 34.3972C83.4219 32.6395 85.1897 30.891 86.9332 29.1151C88.2872 27.7413 88.2324 26.6082 86.781 25.344ZM73.2471 10.5945H77.3517V17.2412C76.022 16.102 74.7958 15.1881 73.7552 14.0976C73.3627 13.6864 73.3566 12.873 73.2623 12.2303C73.1862 11.7246 73.2471 11.1977 73.2471 10.5945ZM60.5803 41.8481H52.368V35.7253H60.5803V41.8481ZM73.2471 41.8359H64.8735C64.8735 39.7066 64.8735 37.5408 64.8735 35.378C64.8735 34.8541 64.8888 34.3302 64.8705 33.8062C64.8188 32.2679 64.0551 31.479 62.5002 31.4729C58.4869 31.4515 54.4766 31.4515 50.4633 31.4729C48.9237 31.482 48.1448 32.2801 48.1326 33.8367C48.1082 36.4899 48.1265 39.1431 48.1265 41.9151H39.753C39.753 41.0012 39.753 40.1087 39.753 39.2131C39.753 36.6818 39.7347 34.1474 39.7712 31.616C39.7773 31.1804 39.8929 30.6078 40.182 30.3397C45.5706 25.3775 50.9927 20.4519 56.497 15.4349C58.1735 16.9579 59.8135 18.4445 61.4475 19.931C65.0926 23.2513 68.7591 26.5503 72.3586 29.9163C72.8241 30.3519 73.1923 31.1408 73.2075 31.7744C73.2927 35.0947 73.2471 38.412 73.2471 41.8359ZM79.3599 30.5682C73.4722 25.21 67.5724 19.8426 61.6726 14.4723C60.6077 13.5036 59.5458 12.5349 58.4808 11.5662C56.8956 10.1254 56.1106 10.1224 54.5557 11.5388C47.7857 17.7042 41.0157 23.8666 34.2426 30.029C34.0509 30.2057 33.8501 30.3702 33.5824 30.6017C32.4718 29.4837 31.4342 28.4389 30.3388 27.3362C39.0318 19.8731 47.7249 12.4131 56.5031 4.88298C65.2478 12.3887 73.9408 19.8457 82.6308 27.3027C81.5171 28.4145 80.4522 29.4776 79.3599 30.5682Z" fill="currentColor"/>
</g>
<defs>
<clipPath id="clip0_68_1305">
<rect width="113" height="99" fill="currentColor"/>
</clipPath>
</defs>
</svg>
