<svg width="99" height="99" viewBox="0 0 99 99" fill="none" xmlns="http://www.w3.org/2000/svg">
<g clip-path="url(#clip0_68_1397)">
<path d="M0 3.47943C0.550101 1.92437 1.44111 0.687027 3.10949 0.188475C5.07745 -0.400488 7.10482 0.405461 8.12754 2.26793C8.40905 2.78198 8.7138 2.92405 9.25357 2.91114C10.5087 2.88014 11.7665 2.8853 13.0216 2.90597C15.1032 2.93697 16.7458 4.22597 17.2571 6.20468C17.7504 8.10331 16.9266 10.0562 15.1265 11.03C14.6048 11.3142 14.4679 11.6268 14.4937 12.1589C14.5273 12.8951 14.5015 13.6339 14.5015 14.5018C15.6353 14.5018 16.7251 14.5767 17.7995 14.4812C19.0082 14.3752 19.9302 14.7576 20.6611 15.7004C20.9555 16.0827 21.2886 16.434 21.6295 16.8318C21.8878 16.6226 22.0634 16.5322 22.1641 16.3875C23.3005 14.7782 24.8397 14.2358 26.769 14.4786C27.7194 14.5974 28.7034 14.5561 29.6641 14.4837C30.6533 14.4088 31.4203 14.7111 32.0375 15.4757C32.4198 15.9458 32.8382 16.3875 33.223 16.8215C33.4528 16.6562 33.5561 16.6174 33.6052 16.5425C34.8707 14.6491 36.6992 14.414 38.8221 14.4605C44.1346 14.5793 49.4522 14.4967 54.7699 14.4992C61.0741 14.5044 65.3922 18.7796 65.449 25.0877C65.4697 27.3092 65.4516 29.5307 65.4516 31.8995C65.8829 31.8995 66.2522 31.8995 66.6241 31.8995C76.7093 31.8995 86.7919 31.8995 96.8771 31.8995C98.5765 31.8995 98.9948 32.3128 98.9974 33.9918C99 35.5392 99 37.0839 98.9974 38.6312C98.9948 40.132 98.5326 40.5996 97.0424 40.5996C90.1467 40.6022 83.2537 40.5996 76.3581 40.6022C76.0353 40.6022 75.7047 40.5712 75.3948 40.6306C74.638 40.7778 74.1938 41.2531 74.1835 42.0332C74.1732 42.8134 74.6122 43.3016 75.3612 43.4643C75.6711 43.5315 76.0017 43.5005 76.3245 43.5005C83.1556 43.5031 89.984 43.5005 96.8151 43.5031C98.6204 43.5031 98.9948 43.888 98.9974 45.7272C98.9974 51.1389 98.9974 56.5532 98.9974 61.965C98.9974 63.8042 98.6178 64.1891 96.8151 64.1917C92.7888 64.1917 88.7599 64.1788 84.7336 64.2098C84.2532 64.2149 83.6204 64.3363 83.3415 64.6515C83.0394 64.9925 82.8353 65.7468 83.0161 66.1032C83.2434 66.5475 83.8865 66.9944 84.3875 67.0435C85.6943 67.1752 87.0243 67.09 88.3467 67.09C91.2779 67.09 94.2092 67.0848 97.1431 67.0926C98.5041 67.0952 98.9897 67.5911 98.9948 68.9654C99.0026 70.6083 99 72.2512 98.9948 73.8941C98.9897 75.3096 98.5041 75.7875 97.0656 75.7901C89.2041 75.7927 81.3426 75.7901 73.481 75.7927C73.1582 75.7927 72.8302 75.7617 72.5177 75.8185C71.761 75.9554 71.3013 76.4204 71.2858 77.2031C71.2677 78.0323 71.7326 78.5257 72.5332 78.6703C72.8457 78.7272 73.1763 78.6936 73.4965 78.6936C81.2935 78.6936 89.0905 78.6936 96.8874 78.6936C98.5816 78.6936 98.9948 79.1069 98.9974 80.7963C99 82.4082 99.0078 84.0175 98.9948 85.6294C98.9845 86.8693 98.4706 87.3911 97.2257 87.3911C81.8255 87.3963 66.4253 87.4015 51.0251 87.386C47.6341 87.3834 45.2038 84.8958 45.1599 81.3982C45.116 78.0168 45.1496 74.6329 45.1496 71.2489C45.1496 70.8666 45.1496 70.4869 45.1496 69.9909C44.7183 69.9909 44.3748 69.9909 44.0287 69.9909C37.9724 69.9909 31.9136 69.9547 25.8573 70.0193C24.5505 70.0322 23.5355 69.7274 22.753 68.689C22.4818 68.3273 22.1926 67.9812 21.9498 67.6738C21.7044 67.8055 21.627 67.8236 21.596 67.8701C20.2143 69.9418 18.1869 70.2673 15.9245 69.9987C15.488 69.947 15.0387 69.9909 14.5015 69.9909C14.5015 70.4275 14.5015 70.771 14.5015 71.1172C14.5015 76.7872 14.5015 82.4599 14.5015 88.1299C14.5015 91.7799 12.4018 93.5933 8.70088 93.0224C8.70088 94.345 8.65956 95.6547 8.71638 96.9592C8.75512 97.8478 8.49944 98.5272 7.73498 98.9947C5.15752 98.9947 2.58005 98.9947 0 98.9947C0 67.1597 0 35.3196 0 3.47943ZM96.0532 81.5971C95.6193 81.5971 95.2707 81.5971 94.922 81.5971C87.608 81.5971 80.294 81.5945 72.98 81.5997C71.0172 81.6023 69.5451 80.7808 68.729 78.9829C67.4222 76.1078 69.5451 72.9151 72.7811 72.9047C80.1597 72.8815 87.5383 72.897 94.9169 72.897C95.2913 72.897 95.6633 72.897 96.0197 72.897C96.0197 71.856 96.0197 70.9441 96.0197 69.9961C92.1767 69.9961 88.4061 70.0012 84.638 69.9935C81.9082 69.9883 79.9712 68.1853 79.9634 65.6563C79.9531 63.13 81.8952 61.3011 84.6122 61.2934C88.091 61.2856 91.5724 61.2908 95.0512 61.2908C95.3895 61.2908 95.7252 61.2908 96.0403 61.2908C96.0403 56.251 96.0403 51.3662 96.0403 46.4014C95.64 46.4014 95.2914 46.4014 94.9453 46.4014C88.5662 46.4014 82.1845 46.4066 75.8054 46.3988C73.6334 46.3962 71.9056 45.1176 71.3968 43.1776C70.6556 40.3516 72.7372 37.7142 75.7537 37.7064C82.1664 37.6909 88.5791 37.7013 94.9892 37.7013C95.3327 37.7013 95.6762 37.7013 96.0274 37.7013C96.0274 36.6783 96.0274 35.7639 96.0274 34.8004C95.578 34.8004 95.1932 34.8004 94.811 34.8004C84.7258 34.8004 74.6406 34.8004 64.5555 34.8004C63.0059 34.8004 62.5539 34.3509 62.5513 32.7829C62.5436 30.1739 62.572 27.5623 62.5436 24.9533C62.4919 20.425 59.4315 17.4079 54.9067 17.4027C49.9455 17.395 44.9791 17.5086 40.023 17.3536C37.8071 17.2839 35.9941 17.6378 34.7028 19.5519C34.6331 19.6578 34.5272 19.7405 34.4291 19.8257C33.6904 20.4664 32.9957 20.4819 32.2803 19.8154C31.5985 19.1774 30.9632 18.4877 30.2865 17.8444C30.0902 17.6585 29.8216 17.4311 29.5789 17.426C27.2106 17.3691 24.6925 16.8964 23.1662 19.4822C23.0861 19.6165 22.9467 19.7172 22.8253 19.8232C22.0867 20.4664 21.3919 20.4819 20.6765 19.8154C19.9947 19.1799 19.3568 18.4928 18.6853 17.8419C18.5071 17.6714 18.2824 17.4363 18.0733 17.4286C16.8982 17.3898 15.7179 17.4105 14.5454 17.4105C14.5454 34.0306 14.5454 50.5164 14.5454 66.9944C16.7122 67.3044 18.7551 67.3716 20.1084 65.2482C20.2427 65.0364 20.4596 64.8711 20.6507 64.7006C21.4203 64.0109 22.0996 64.0083 22.864 64.7238C23.4503 65.274 24.0366 65.832 24.566 66.4365C25.005 66.9376 25.488 67.1107 26.1595 67.1107C36.5675 67.09 46.9755 67.0822 57.3809 67.1107C59.0622 67.1158 60.7409 67.3147 62.541 67.4336C62.541 67.3147 62.541 66.9402 62.541 66.5656C62.541 57.7363 62.541 48.9071 62.5436 40.0778C62.5436 39.6593 62.5333 39.2331 62.6159 38.8275C62.7657 38.1042 63.2745 37.7168 63.9976 37.7219C64.7207 37.7271 65.2089 38.1197 65.3742 38.8405C65.431 39.0884 65.4387 39.3519 65.4387 39.6077C65.4413 50.5965 65.4568 61.5827 65.431 72.5715C65.4232 76.3248 62.9723 78.6859 59.2068 78.6936C56.4692 78.6988 53.7291 78.6807 50.9915 78.7014C49.6614 78.7117 48.5767 79.5099 48.1893 80.6878C47.8097 81.8425 48.1661 83.2297 49.2095 83.8599C49.8319 84.2345 50.6454 84.4696 51.3737 84.4722C65.9707 84.5057 80.5652 84.498 95.1622 84.498C95.4411 84.498 95.7227 84.498 96.0429 84.498C96.0532 83.5086 96.0532 82.6174 96.0532 81.5971ZM5.80059 96.0551C5.80059 95.6831 5.80059 95.4274 5.80059 95.1691C5.80059 65.0829 5.80059 34.9967 5.80059 4.91051C5.80059 4.71677 5.81092 4.52303 5.79284 4.33188C5.71795 3.49493 5.13944 2.91889 4.3724 2.90597C3.57178 2.89305 2.97003 3.49493 2.90546 4.38354C2.88996 4.60828 2.90029 4.8356 2.90029 5.06033C2.90029 35.0509 2.90029 65.039 2.90029 95.0296C2.90029 95.3705 2.90029 95.7089 2.90029 96.0577C3.9256 96.0551 4.81402 96.0551 5.80059 96.0551ZM8.70088 11.6397C8.70088 11.991 8.70088 12.2441 8.70088 12.4999C8.70088 37.7839 8.70089 63.068 8.70347 88.3521C8.70347 88.6104 8.68022 88.8765 8.73962 89.1219C8.91008 89.8219 9.36462 90.2585 10.0955 90.2817C10.8729 90.3075 11.3713 89.8736 11.5547 89.1322C11.6296 88.8274 11.5986 88.4916 11.5986 88.1712C11.6012 63.0163 11.6012 37.8614 11.6012 12.7039C11.6012 12.3604 11.6012 12.0168 11.6012 11.6371C10.5991 11.6397 9.71069 11.6397 8.70088 11.6397ZM48.1402 70.0064C48.1402 72.215 48.1402 74.3048 48.1402 76.1957C49.5762 76.0588 50.9321 75.8495 52.2905 75.8159C54.7337 75.754 57.182 75.8211 59.6278 75.7901C61.2445 75.7695 62.4635 74.5683 62.5281 73.0184C62.5927 71.4685 61.4305 70.0529 59.8654 70.0296C55.9785 69.9651 52.0891 70.0064 48.1402 70.0064ZM8.74996 8.68711C10.2608 8.68711 11.7303 8.73102 13.1921 8.66902C13.9488 8.63803 14.4214 8.11622 14.4808 7.35161C14.5402 6.57924 14.1244 5.93086 13.3935 5.8792C11.8491 5.77071 10.2892 5.84562 8.74996 5.84562C8.74996 6.83756 8.74996 7.72358 8.74996 8.68711Z" fill="currentColor"/>
</g>
<defs>
<clipPath id="clip0_68_1397">
<rect width="99" height="99" fill="currentColor"/>
</clipPath>
</defs>
</svg>
