<svg width="99" height="99" viewBox="0 0 99 99" fill="none" xmlns="http://www.w3.org/2000/svg">
<g clip-path="url(#clip0_68_1333)">
<path d="M99 10.0537C98.3543 11.5054 97.9308 13.1173 97.0217 14.3805C94.7516 17.5294 89.9479 19.1 85.2785 16.3928C84.0517 17.6405 82.8017 18.9269 81.5311 20.1952C80.9319 20.7945 80.1287 21.0735 79.4237 20.624C78.8942 20.2856 78.3699 19.6192 78.2692 19.025C78.1814 18.511 78.5636 17.7825 78.9588 17.346C80.1029 16.0854 81.3555 14.9281 82.5977 13.6986C81.3116 11.5106 80.8312 9.21675 81.4717 6.80149C82.404 3.29354 84.6948 1.11076 88.2098 0.20407C88.4551 0.139491 88.7005 0.0671624 88.9432 0C89.7154 0 90.4902 0 91.2624 0C91.4096 0.0542466 91.5543 0.131742 91.7066 0.160157C94.7826 0.774951 96.9649 2.53151 98.2433 5.37816C98.579 6.1247 98.7495 6.94614 98.9974 7.73401C99 8.50896 99 9.28133 99 10.0537ZM95.1286 8.9791C95.1674 6.19961 92.9308 3.898 90.1648 3.86959C87.4272 3.84117 85.139 6.04462 85.0822 8.75953C85.0228 11.5416 87.2361 13.8665 89.9944 13.9181C92.7707 13.9698 95.0899 11.7379 95.1286 8.9791Z" fill="currentColor"/>
<path d="M99 91.2686C98.579 92.9657 98.0057 94.5828 96.8177 95.9312C93.8296 99.3229 88.9097 99.9919 85.1726 97.4914C81.4149 94.978 80.1442 90.0881 82.2 86.0454C82.3162 85.8181 82.4376 85.5959 82.6055 85.2756C81.3684 84.0589 80.1132 82.8552 78.8942 81.6204C78.0962 80.8119 77.9851 79.9 78.5068 79.0812C79.1886 78.0143 80.5833 77.8877 81.5853 78.8616C82.8327 80.0705 84.0362 81.3285 85.2036 82.5116C86.2573 82.1241 87.1871 81.6617 88.1736 81.4422C92.967 80.3727 97.639 83.3408 98.7779 88.1197C98.845 88.3987 98.9251 88.6725 99 88.9463C99 89.7212 99 90.4936 99 91.2686ZM90.0796 85.0819C87.3084 85.0922 85.059 87.3757 85.0796 90.1552C85.1003 92.883 87.3498 95.1201 90.0796 95.133C92.8508 95.1433 95.1286 92.8779 95.1286 90.1061C95.1286 87.3344 92.8533 85.0715 90.0796 85.0819Z" fill="currentColor"/>
<path d="M10.0516 0C11.4798 0.625127 13.0629 1.03585 14.3078 1.91671C17.4328 4.12532 19.1554 8.91194 16.4023 13.7089C17.5877 14.8791 18.8429 16.0337 19.9818 17.2943C20.395 17.7515 20.7953 18.5033 20.7153 19.0509C20.6326 19.6347 20.0774 20.2934 19.5453 20.6344C18.8764 21.0632 18.0939 20.7997 17.5128 20.2366C16.4694 19.2291 15.4467 18.201 14.4343 17.1652C14.189 16.9146 14.0159 16.5891 13.8274 16.3231C11.441 17.7051 9.12959 18.1442 6.66318 17.4906C2.62394 16.4238 -0.0955683 12.8022 0.00257166 8.62521C0.0955464 4.60579 3.00617 1.10301 6.99375 0.20407C7.24169 0.147241 7.48446 0.0671624 7.72981 0C8.50459 0 9.2768 0 10.0516 0ZM13.9152 8.84736C13.8945 6.08078 11.5986 3.83601 8.81968 3.86959C6.09242 3.90059 3.86619 6.15828 3.86619 8.89127C3.86619 11.663 6.1389 13.9285 8.91007 13.9207C11.6786 13.9104 13.9359 11.6217 13.9152 8.84736Z" fill="currentColor"/>
<path d="M79.6148 28.2056C79.4262 28.7429 79.3178 29.1433 79.1447 29.5153C78.4397 31.0316 77.7346 32.5505 76.9857 34.0462C76.7145 34.5861 76.7274 35.0226 76.9831 35.5806C77.652 37.0401 78.2047 38.5538 78.8658 40.0159C79.0259 40.3724 79.3694 40.7624 79.7232 40.9019C81.3684 41.5477 83.0523 42.1005 84.7129 42.7075C85.8518 43.1234 86.2341 43.6762 86.2392 44.8826C86.247 47.9772 86.2366 51.0693 86.2444 54.1639C86.247 55.2308 85.7718 55.9308 84.762 56.2847C83.0936 56.8685 81.4149 57.4342 79.7697 58.0852C79.3927 58.235 79.0285 58.6483 78.8529 59.0306C78.1737 60.5211 77.5461 62.0374 76.965 63.5692C76.8255 63.936 76.8126 64.4553 76.965 64.804C77.6571 66.3952 78.4397 67.9503 79.1757 69.5234C79.7155 70.6781 79.6122 71.3291 78.7238 72.2254C76.5673 74.3979 74.4004 76.5626 72.2285 78.7195C71.3297 79.6133 70.684 79.714 69.527 79.1742C67.9542 78.438 66.402 77.6527 64.806 76.9681C64.4341 76.808 63.8788 76.8571 63.4837 77.0043C61.9806 77.57 60.4956 78.1874 59.0338 78.8539C58.6516 79.0295 58.2358 79.3911 58.086 79.7683C57.4455 81.3802 56.9083 83.036 56.3117 84.666C55.8778 85.8568 55.3355 86.234 54.07 86.2365C51.0096 86.2443 47.9466 86.2443 44.8861 86.2365C43.6826 86.234 43.1248 85.8439 42.7116 84.7099C42.1046 83.0489 41.552 81.3673 40.9063 79.7192C40.7668 79.3653 40.3794 79.0218 40.0205 78.859C38.5277 78.1874 37.0117 77.5545 35.4776 76.9811C35.085 76.8338 34.5324 76.8235 34.1553 76.9862C32.5618 77.6759 31.0097 78.4612 29.4368 79.1948C28.3418 79.7063 27.6652 79.5926 26.8155 78.7479C24.6202 76.5677 22.4327 74.3798 20.253 72.1841C19.4085 71.3342 19.3 70.66 19.8114 69.5622C20.5345 68.0175 21.2576 66.4727 22.0221 64.9486C22.2933 64.4062 22.2752 63.9696 22.0221 63.4142C21.3661 61.9832 20.8315 60.4978 20.1704 59.0693C19.9818 58.6612 19.5918 58.2247 19.189 58.0619C17.6084 57.4265 15.9839 56.9021 14.3827 56.3209C13.1404 55.8714 12.7711 55.3418 12.7711 54.0141C12.766 50.984 12.766 47.9566 12.7711 44.9265C12.7737 43.6582 13.1482 43.1234 14.3439 42.6895C15.9762 42.0953 17.629 41.5555 19.2406 40.9148C19.6177 40.765 19.9792 40.3491 20.1549 39.9642C20.8212 38.5022 21.4462 37.0194 22.0014 35.5134C22.1564 35.0949 22.1745 34.506 22.0014 34.103C21.3325 32.535 20.5552 31.0161 19.832 29.4714C19.2897 28.3141 19.3956 27.6735 20.2892 26.772C22.4482 24.5995 24.6125 22.4374 26.7845 20.2779C27.6806 19.3867 28.3211 19.2834 29.4833 19.8232C31.0587 20.5594 32.6109 21.3447 34.2044 22.0267C34.5763 22.1868 35.1315 22.1403 35.5267 21.9931C37.0298 21.4274 38.5174 20.8126 39.9766 20.1461C40.3588 19.9731 40.772 19.6037 40.9218 19.2239C41.5623 17.612 42.1021 15.9588 42.6961 14.3263C43.1325 13.1302 43.6646 12.7583 44.9352 12.7557C47.9956 12.7479 51.0586 12.7479 54.119 12.7557C55.3225 12.7583 55.883 13.1483 56.2962 14.2798C56.9031 15.9407 57.4558 17.625 58.1015 19.2704C58.2383 19.6218 58.6309 19.9627 58.9873 20.1229C60.4801 20.7945 61.9935 21.43 63.5276 22.006C63.9201 22.1533 64.4728 22.1713 64.8499 22.0112C66.4434 21.3215 67.9955 20.5362 69.5683 19.8C70.6634 19.2885 71.3374 19.3944 72.1923 20.2417C74.3901 22.4193 76.5854 24.5995 78.747 26.8133C79.1215 27.2085 79.3384 27.7587 79.6148 28.2056ZM23.7602 28.7481C24.5505 30.4091 25.2969 32.0468 26.1001 33.6535C26.5417 34.5396 26.4746 35.3119 26.0588 36.216C25.1342 38.2257 24.2974 40.2794 23.52 42.3485C23.1869 43.2397 22.7168 43.8338 21.8077 44.136C20.284 44.6449 18.7835 45.2313 17.2597 45.7402C16.7819 45.9003 16.6063 46.1199 16.6141 46.6288C16.6425 48.53 16.6502 50.4312 16.6115 52.3299C16.5986 52.893 16.8104 53.1126 17.3114 53.2805C18.8351 53.7893 20.3382 54.3654 21.8594 54.882C22.7272 55.1765 23.1843 55.7551 23.5071 56.6128C24.3 58.7129 25.1626 60.7897 26.082 62.8356C26.4565 63.6648 26.5649 64.3907 26.1517 65.2199C25.4338 66.6587 24.7804 68.1311 24.0675 69.5699C23.8403 70.0272 23.8015 70.332 24.2225 70.7324C25.599 72.042 26.942 73.3879 28.254 74.7621C28.6465 75.1728 28.9513 75.1728 29.4162 74.9403C30.8573 74.2248 32.3294 73.5739 33.7627 72.8454C34.5943 72.4243 35.3175 72.5303 36.1465 72.9022C38.1945 73.8193 40.2684 74.6898 42.3681 75.4802C43.2617 75.816 43.8376 76.2965 44.1346 77.211C44.6227 78.7092 45.1986 80.179 45.7048 81.6695C45.8701 82.1526 46.0716 82.398 46.6475 82.385C48.5483 82.3411 50.4491 82.3411 52.3499 82.385C52.931 82.398 53.1273 82.1422 53.29 81.6643C53.7988 80.1739 54.367 78.7014 54.8577 77.2058C55.1573 76.2965 55.7358 75.816 56.6294 75.4776C58.729 74.6872 60.8055 73.8218 62.8535 72.9048C63.6851 72.5328 64.4057 72.4347 65.2373 72.8506C66.8747 73.6668 68.543 74.4237 70.2502 75.2322C71.8101 73.672 73.37 72.1376 74.8808 70.5593C75.0435 70.3888 75.0487 69.9109 74.9376 69.6604C74.2713 68.1621 73.5663 66.6794 72.8354 65.2095C72.4402 64.4165 72.51 63.7191 72.8715 62.9131C73.8013 60.8337 74.6794 58.731 75.4877 56.6024C75.8131 55.7474 76.2703 55.1739 77.1406 54.882C78.6644 54.3706 80.1675 53.7945 81.6912 53.283C82.1922 53.1151 82.3911 52.8749 82.3808 52.3195C82.342 50.4183 82.3937 48.5171 82.3369 46.6185C82.3291 46.3188 82.0011 45.8771 81.7145 45.7634C80.2527 45.1771 78.7703 44.6372 77.2697 44.1619C76.2729 43.8467 75.7873 43.2061 75.4361 42.2503C74.6949 40.2329 73.8891 38.2361 72.9774 36.291C72.541 35.361 72.4273 34.5731 72.8922 33.6458C73.7005 32.0416 74.4443 30.4039 75.1391 28.9418C73.401 27.2085 71.7429 25.5579 70.041 23.8633C68.494 24.5944 66.8333 25.3641 65.1856 26.1675C64.3927 26.555 63.6929 26.4723 62.8897 26.1107C60.8132 25.1782 58.7058 24.3076 56.5803 23.4965C55.7616 23.1839 55.1882 22.7551 54.9042 21.9234C54.3928 20.4329 53.8324 18.9579 53.3417 17.4622C53.1454 16.8681 52.8975 16.5839 52.1976 16.6072C50.3949 16.6692 48.5896 16.6537 46.787 16.6124C46.1749 16.5969 45.8701 16.7751 45.679 17.3744C45.1831 18.9036 44.6124 20.407 44.0855 21.9285C43.8118 22.719 43.2901 23.1607 42.4972 23.4655C40.3407 24.2921 38.2075 25.1782 36.0974 26.1158C35.2994 26.4697 34.5969 26.5653 33.8015 26.1675C32.3345 25.4339 30.8521 24.7287 29.3542 24.0596C29.1011 23.946 28.6207 23.9408 28.4503 24.1036C26.8697 25.6147 25.333 27.1749 23.7602 28.7481Z" fill="currentColor"/>
<path d="M13.7138 82.5736C14.9173 81.3621 16.1285 80.117 17.3682 78.903C18.1636 78.1228 18.9978 77.9963 19.8191 78.4535C20.9684 79.0941 21.1492 80.5381 20.1445 81.574C18.9359 82.8216 17.6729 84.015 16.3894 85.273C17.8202 87.7555 18.2153 90.3154 17.283 93.0019C16.5831 95.0245 15.3073 96.5977 13.4788 97.7084C9.82949 99.9248 5.18334 99.2351 2.30371 96.0604C-0.53977 92.927 -0.767041 88.254 1.72262 84.8494C3.81455 81.9898 8.42713 79.6443 13.7138 82.5736ZM13.9152 90.1475C13.9333 87.3732 11.6787 85.0896 8.9075 85.0819C6.17249 85.0741 3.90494 87.2931 3.8662 90.0158C3.82488 92.7952 6.06143 95.102 8.82485 95.1304C11.5986 95.1614 13.8946 92.9141 13.9152 90.1475Z" fill="currentColor"/>
<path d="M36.304 59.5498C37.6883 56.6386 39.8603 54.8019 42.8071 53.8849C40.3614 49.3954 41.6733 44.4228 44.5246 42.2038C47.3655 39.9926 51.3427 39.8635 54.2249 41.9946C57.6702 44.5442 58.37 48.5662 56.2678 53.9004C59.2249 54.8097 61.3762 56.6747 62.7424 59.5472C64.8344 56.7832 66.0121 53.748 66.1076 50.3847C66.3091 43.4877 63.339 38.3136 57.3861 34.816C56.854 34.5034 56.3556 33.9248 56.1257 33.3539C55.8287 32.6177 56.1774 31.8892 56.8411 31.4113C57.541 30.9076 58.2874 30.9515 59.0286 31.3442C62.9 33.4004 65.8803 36.3529 67.8302 40.2794C74.0234 52.7638 66.526 67.3846 52.7425 69.7508C41.366 71.7036 30.3175 63.2437 29.1631 51.6944C28.3211 43.2681 32.4017 35.4953 39.7803 31.4785C41.0251 30.8017 42.1408 31.0161 42.7167 32.0468C43.3004 33.0878 42.9182 34.1237 41.6656 34.8444C35.8573 38.1896 32.8976 43.2242 32.9182 49.9094C32.9234 53.4174 34.0959 56.5998 36.304 59.5498ZM49.5581 57.4342C48.1093 57.4342 46.6578 57.4032 45.2115 57.4419C42.554 57.5117 40.2813 59.3742 39.5814 61.9392C39.429 62.4998 39.5427 62.7891 40.0127 63.1275C45.506 67.0978 53.5302 67.0978 59.0441 63.1249C59.5271 62.7762 59.6071 62.4559 59.4573 61.916C58.7368 59.307 56.4382 57.4859 53.7136 57.4342C52.3293 57.4109 50.9424 57.4316 49.5581 57.4342ZM53.5999 48.84C53.5999 48.7341 53.6103 48.5093 53.5973 48.2846C53.4992 46.1561 51.9393 44.5183 49.8319 44.322C47.8562 44.1386 45.9244 45.5568 45.524 47.5742C45.3872 48.2588 45.4156 48.9872 45.4414 49.6899C45.5034 51.3689 46.6681 52.8258 48.259 53.3631C50.7306 54.1949 53.8634 52.3531 53.5999 48.84Z" fill="currentColor"/>
<path d="M51.4357 30.9231C51.4434 32.0055 50.5602 32.8838 49.4858 32.8631C48.4657 32.845 47.5953 31.9667 47.585 30.949C47.5746 29.9002 48.4992 28.9883 49.5529 29.009C50.5937 29.0297 51.4305 29.8821 51.4357 30.9231Z" fill="currentColor"/>
</g>
<defs>
<clipPath id="clip0_68_1333">
<rect width="99" height="99" fill="currentColor"/>
</clipPath>
</defs>
</svg>
