<svg width="91" height="99" viewBox="0 0 91 99" fill="none" xmlns="http://www.w3.org/2000/svg">
<g clip-path="url(#clip0_68_1342)">
<path d="M13.0154 51.6908C13.6886 51.3798 14.2993 50.9947 14.9669 50.8093C17.1598 50.2017 19.3385 51.2201 20.3554 53.3453C21.1962 55.1055 21.9632 56.9027 22.7244 58.6999C23.355 60.1918 24.1902 61.4727 25.4315 62.5738C30.5274 67.0954 33.0612 72.8692 33.4078 79.6501C33.4504 80.503 33.4788 81.356 33.5157 82.2089C33.5185 82.2746 33.5611 82.3402 33.6435 82.5627C34.419 82.5627 35.2541 82.5712 36.0892 82.5598C37.0607 82.5484 37.5464 83.0619 37.5493 83.9976C37.5635 88.5163 37.5635 93.0321 37.5493 97.5507C37.5464 98.4893 37.038 98.9999 36.0836 98.9999C28.2919 99.0028 20.5003 99.0056 12.7058 98.9971C11.7656 98.9971 11.2628 98.5036 11.2628 97.5393C11.2628 93.0207 11.26 88.5048 11.2628 83.9862C11.2628 83.0191 11.7684 82.557 12.72 82.5598C13.0722 82.5598 13.4245 82.5598 13.9784 82.5598C13.7312 82.1234 13.5665 81.801 13.3733 81.4958C10.3709 76.7574 7.39396 72.0048 4.35173 67.2922C1.53958 62.9361 0.10226 58.1921 0.0823765 53.003C0.0681737 47.7398 0.0170437 42.4737 4.23915e-07 37.2105C-0.00852124 34.5717 1.7441 32.4665 4.12164 32.184C6.81165 31.8674 8.96479 33.3822 9.57835 36.1208C10.6663 40.9703 11.7031 45.8342 12.7626 50.6923C12.8393 51.0318 12.9359 51.3684 13.0154 51.6908ZM31.0728 82.5684C30.9876 81.0679 30.9592 79.69 30.8229 78.3236C30.2519 72.661 27.8374 67.9597 23.588 64.1656C22.608 63.2899 21.7359 62.1944 21.1138 61.0362C20.1111 59.1677 19.3555 57.1623 18.4948 55.2139C18.3954 54.9857 18.2932 54.7603 18.1795 54.5406C17.5347 53.2969 16.407 52.829 15.2822 53.3339C14.1204 53.8588 13.6773 55.1112 14.2795 56.392C15.4697 58.9309 16.7025 61.4499 17.9182 63.9745C18.4096 64.9986 18.901 66.0227 19.3953 67.044C19.7646 67.8028 19.7958 68.5017 18.9749 68.9781C18.2733 69.3832 17.6398 69.058 17.1427 68.0881C17.0632 67.9312 16.9894 67.7686 16.9127 67.6088C15.2453 64.12 13.5636 60.634 11.9161 57.1337C11.5866 56.4348 11.3111 55.6903 11.1407 54.9372C10.5157 52.2014 9.94194 49.4571 9.3511 46.7128C8.63813 43.4151 7.93083 40.1174 7.20933 36.8225C6.84574 35.1651 5.66407 34.3464 4.2239 34.7229C3.0962 35.0168 2.49969 35.884 2.50253 37.3246C2.51957 42.7305 2.51957 48.1392 2.59059 53.545C2.64172 57.6073 3.67852 61.4299 5.83166 64.8817C9.39939 70.6042 13.0325 76.2896 16.6627 81.975C16.8388 82.2489 17.2507 82.537 17.5518 82.5399C21.9774 82.5798 26.403 82.5684 31.0728 82.5684ZM13.825 96.3954C20.9747 96.3954 27.9965 96.3954 35.0042 96.3954C35.0042 92.5899 35.0042 88.8728 35.0042 85.133C27.9141 85.133 20.8951 85.133 13.825 85.133C13.825 88.9242 13.825 92.6384 13.825 96.3954Z" fill="currentColor"/>
<path d="M78.0102 51.725C78.868 47.7854 79.723 43.8658 80.578 39.9491C80.8734 38.5969 81.1348 37.2333 81.4643 35.8897C82.0892 33.3565 84.3105 31.8645 86.9011 32.1897C89.2105 32.4779 91.0057 34.5404 90.9972 37.0222C90.9773 42.7476 90.9432 48.4758 90.8466 54.2011C90.7671 58.948 89.2247 63.247 86.6852 67.2209C83.6657 71.9449 80.6689 76.6861 77.6636 81.4244C77.4619 81.7439 77.283 82.0777 77.0756 82.4343C79.7372 82.8622 79.7372 82.8622 79.7372 85.6122C79.7372 89.4548 79.7401 93.2945 79.7372 97.1371C79.7372 98.6091 79.368 98.9999 77.9505 98.9999C70.3719 99.0056 62.7905 99.0056 55.2119 98.9999C53.8512 98.9999 53.4507 98.5948 53.4479 97.2056C53.4394 92.9008 53.4394 88.599 53.4479 84.2942C53.4507 82.9449 53.8285 82.5826 55.1465 82.5627C55.8198 82.5541 56.493 82.5512 57.1633 82.5398C57.2287 82.5398 57.294 82.4913 57.4105 82.4457C57.5383 80.7797 57.6093 79.0824 57.811 77.4021C58.5325 71.3943 61.2225 66.4335 65.6822 62.3656C66.6451 61.4869 67.4177 60.3202 68.0313 59.1563C68.9403 57.4361 69.6078 55.5876 70.4202 53.8132C71.8831 50.6182 74.6469 49.7823 77.6636 51.5938C77.7488 51.6451 77.8539 51.668 78.0102 51.725ZM59.9954 82.4628C60.2283 82.5142 60.3277 82.557 60.43 82.557C64.7505 82.5627 69.0709 82.5798 73.3943 82.5341C73.7465 82.5313 74.2123 82.1718 74.4225 81.8438C77.9079 76.4037 81.362 70.9436 84.8218 65.4893C87.1624 61.8007 88.3725 57.7613 88.4208 53.3938C88.4776 48.0593 88.4833 42.7219 88.5003 37.3873C88.506 35.7642 87.7533 34.8028 86.421 34.6545C85.0945 34.509 84.123 35.3191 83.785 36.8682C82.9925 40.5111 82.0097 44.1283 81.4643 47.8082C80.382 55.094 77.2177 61.6067 74.3373 68.2364C73.9652 69.0951 73.2039 69.3689 72.5336 68.9524C71.7212 68.4475 71.8263 67.7515 72.1558 66.9955C73.6414 63.578 75.1156 60.1576 76.5927 56.7343C77.2858 55.1283 76.9904 53.9301 75.769 53.351C74.5305 52.7605 73.3715 53.3396 72.6273 54.9799C71.8348 56.7258 71.2014 58.5515 70.2895 60.2289C69.5396 61.6067 68.6903 63.0559 67.5285 64.0572C61.8929 68.9239 59.8562 75.1856 59.9954 82.4628ZM56.0101 85.1187C56.0101 88.927 56.0101 92.6698 56.0101 96.4068C63.1115 96.4068 70.1333 96.4068 77.1722 96.4068C77.1722 92.6156 77.1722 88.8985 77.1722 85.1187C70.0907 85.1187 63.0688 85.1187 56.0101 85.1187Z" fill="currentColor"/>
<path d="M44.4206 58.603C38.001 58.5887 30.9393 56.6261 24.2328 53.2371C23.4374 52.8348 23.2358 52.2386 23.2556 51.4199C23.5084 41.1302 30.8428 32.2526 40.8728 30.116C53.5587 27.4116 65.9122 36.1409 67.537 49.1007C68.054 53.2314 68.2671 52.5524 64.7419 54.1984C58.6632 57.0312 52.2747 58.5887 44.4206 58.603ZM45.5114 56.1069C51.4993 56.104 57.74 54.672 63.6767 51.942C65.2674 51.2088 65.2674 51.2088 65.0828 49.4744C64.1341 40.5911 56.4646 33.02 47.6134 32.2327C36.3534 31.2314 26.9171 39.0677 25.7923 50.3359C25.7298 50.9606 25.8945 51.2858 26.4711 51.5597C32.4988 54.4352 38.8162 56.0612 45.5114 56.1069Z" fill="currentColor"/>
<path d="M34.3253 13.6217C34.4218 12.0983 34.3764 10.5522 34.6406 9.06022C35.6177 3.55166 40.7421 -0.399325 46.2073 0.0314322C52.0191 0.490716 56.4674 5.11209 56.5526 10.8974C56.5895 13.3792 56.6918 15.9067 56.3083 18.34C55.4505 23.7887 50.1585 27.7169 44.6791 27.2604C39.0349 26.7897 34.598 22.1883 34.436 16.6142C34.4076 15.6186 34.4332 14.623 34.4332 13.6274C34.3963 13.6245 34.3622 13.6245 34.3253 13.6217ZM54.2205 13.713C54.1665 13.7101 54.1097 13.7073 54.0558 13.7016C54.0558 12.6346 54.1154 11.562 54.0444 10.5008C53.7518 6.04492 50.042 2.55892 45.6051 2.52754C41.0744 2.49331 37.2681 5.89943 36.9698 10.3924C36.8278 12.5177 36.8335 14.6658 36.9613 16.791C37.2141 20.9845 40.6029 24.4163 44.6478 24.7358C48.991 25.0781 52.8258 22.4308 53.7916 18.2573C54.1296 16.791 54.087 15.2306 54.2205 13.713Z" fill="currentColor"/>
</g>
<defs>
<clipPath id="clip0_68_1342">
<rect width="91" height="99" fill="currentColor"/>
</clipPath>
</defs>
</svg>
